<mxfile host="Electron" agent="Mozilla/5.0 (Windows NT 10.0; Win64; x64) AppleWebKit/537.36 (KHTML, like Gecko) draw.io/24.7.5 Chrome/126.0.6478.183 Electron/31.3.0 Safari/537.36" version="24.7.5">
  <diagram name="第 1 页" id="BgBPvjQI1lr-AIQMQHY8">
    <mxGraphModel dx="1195" dy="703" grid="1" gridSize="10" guides="1" tooltips="1" connect="1" arrows="1" fold="1" page="1" pageScale="1" pageWidth="1169" pageHeight="827" math="0" shadow="0">
      <root>
        <mxCell id="0" />
        <mxCell id="1" parent="0" />
        <mxCell id="pl3pOV0jGXb2XWtJpDfa-45" value="" style="rounded=0;whiteSpace=wrap;html=1;strokeColor=#B266FF;" vertex="1" parent="1">
          <mxGeometry x="540" y="520" width="140" height="30" as="geometry" />
        </mxCell>
        <mxCell id="pl3pOV0jGXb2XWtJpDfa-30" value="" style="whiteSpace=wrap;html=1;dashed=1;" vertex="1" parent="1">
          <mxGeometry x="880" y="131.75" width="210" height="86.5" as="geometry" />
        </mxCell>
        <mxCell id="pl3pOV0jGXb2XWtJpDfa-26" value="" style="whiteSpace=wrap;html=1;dashed=1;" vertex="1" parent="1">
          <mxGeometry x="330" y="53.5" width="210" height="86.5" as="geometry" />
        </mxCell>
        <mxCell id="pl3pOV0jGXb2XWtJpDfa-22" value="" style="shape=image;verticalLabelPosition=bottom;labelBackgroundColor=default;verticalAlign=top;aspect=fixed;imageAspect=0;image=data:image/png,iVBORw0KGgoAAAANSUhEUgAAAT8AAABlCAYAAAA7xOSOAAAAAXNSR0IArs4c6QAAAARnQU1BAACxjwv8YQUAAAAJcEhZcwAADsMAAA7DAcdvqGQAACgpSURBVHhe7Z0HnBTl+cef3b29DgfH0XsHBWkCCogUG0hQwYIFEQtRE3tUNDHWqInGmJi/RrEEFRGxK0XpvUqV3nsvx9W9bf/n987M7ezs7N7u7VzLvd8PLztt53Zm3vm9z/OW57Ul3vyynyQSiaSaYVc/JRKJpFohxU8ikVRLpPhJJJJqiRQ/iURSLZHiJ5FIqiVS/CQSSbVEip9EIqmWSPGTSCTVEil+EomkWiLFTyKRVEuk+EkkkmqJFD+JRFItkeInkUiqJVL8JBJJtUSKn0QiqZZUSvHz+/1K8nnJ7/USJdipxj2PiURJSWKb2KceJ5FIJLFSiS0/FjWha36y+3xiC7ALsQvsk0gkktJQ6cRPseRUcbP5+R8LX4MmYp8gI1PZxvs0AZTWn0QiiZVKE8Y+IGCaqPnIkVqDnH0GkbN1B7KJfbyVj/NsXktFKxeRr6iQt7B+i53KETabdqREIpGEp8LFL1T0GLudErv2pqRuvcmW4BSbNUnTln2FBeT+ZTG5Nq0LfE+KoEQiiZIKdXuLXVwk8eGnhGatKO3GsZTcs58QPl9eLrnmT8fhAteKBeRzucienEJJfS+ntBvuJEfDxuK7iggq55OusEQiiYTD0Xnwc+pyuRFi7fG6vXYmpVwxnJK6XyyEze/zkXv9SnLNmEq+U0cp8cJLxDcKZ35F7o0ryZaaTvY69cmekkqJ7TuTrXYW+Y4dIj8Lo7D+dIaftAIlEomRchW/YNHDso1sTicl9bqUUgYOJUfN2mKvZ99Ock2fQp5tG3nFTZSQUCx+RWuWEeXnkHf3NvLt30W2OvXInl6THJlZ5OzYlW1ZG3mPHVbPz0gRlDBtG2RSzZREOpuPwlESL63q1aKsGql0OrdA3VL1KJc6P9N6PZufnG07CeGzp6WJTd7sM+RaMJN8LH6BA5nEREr/7XixmPvBGyx+uWJZwIKW0KELJV48iM+TLjZ5s0+Ta+k8FtFdYn9AAFlspQBWKxrVTqfvnriJLmheT6wv3LKfrnttKuUWFol1SWzUqZFCP44fRd1bNhDra/Ycpd+8OoVO5uSL9apEmVp+QaKnffA2R/2GlHrVSEo8vxurbyL53W4qWrWIXD9/S/6zJxXBErWREC4WrAQnJfboiw1UtG65Yg1Cw1Qh8504Rp5Na9lCdJK9XkPhCjvbnkeORk3Ie/ww+QtQOuFcODogqlII//f5xx1X0BVdWqlrRM3rZogeA/M37VO3SGLhLzcPpGsubKeuETXkwiU5MYF+Wr9b3VJ1iLvBAwJnntAxmYWGl4Xe+PxkS0lh9/ZqSr12NDmy6otd7q0bKP/Tt8m9aiEf4xEC5WfX1W9z8KedP/m7QSLF+/h/vx37OdmUri7+IhcVLZpJBZP/I9xmkNCouWgQSWKrEO41foMmwFjQ/15J6WjJ7k//js2KU9/2TdU9lQPNQtFzYatG6pIkVszvZ0N1qWphQWsvBAWJxU4kbV3ZJZZZnJK6XEhpN91DzvbnCy3zsrVW+OWH5JrF1l7eOXEmIWIsesrP0pJe+BisCjFU97H4QSS1w3xnTlHhD5Mp//vPhBtt432Bv92Jj9P/PlWgOUkRLB13DepKs565tTj9MP4mdU/lYPXuI+pSgFW7DqtLklhZvcvsfoZuqwrEXednF6Mv+BQQn6AzKSuOuo3I2ambaJQAvqIi8mxeR549W5VDoF/Kf+oKFsQKwwdAlNidTRumvFR5M74km6vQ9DiRxBqWeYEtQ2e78ymhXWd2nSGqSr2iZ8Mq8p49pZyDTUvvYXaB1PNJVzg2Xho1gB4ffrG6xs/H5abMsa+raxWPsc5v0Zb9dK2s8ys1qPP7+g830EVtG4t11PkNe/VzOpVT9Ro+4hY/EWygjMEP1MlcEFZI1bn332BVhMstBTBWKrv4abRvVIdcbg/tPZGtbpHEA1p7HexV7Th6Wt1S9YDvWCWxXJ6gqnEVA5LKzLbDp6TwWcju42ertPCBuC0/m8elCodBPYoXeUEs6/aJbX5KHn4rubeuJ++OzWKro35jcl52DRVOepvXWN604AX6ri7vv04JLdtR8uDh5GF3tfCrieqx/FH8J3hBuLTFG3TgWPV4aD//86HRBAvYxstWWX7JzgRqllWTXYVUdgvy6ejZPDpXYF0/s7o1U0XKSE2mM7kFdPxcfpn1u2qcWYNSEhNo59Ez6hYFqy0/h93GrmoNql8rjdweHx0+k0Mn+LoqC5npKaKRp8jjFb/NKnfPznmuXcNMqpeRJlqj8RyPZ+eXSReSxASHsNyOZufR2TyMjy9/cB/rcd6tzZ/Z+YXiGZf3c46/n5+niDUKpzCcJmhV3S+abvHJH7yY/Jubyb1lXbD4DWbx++wdRYjU48jpDIjfhNcU8WORLBY/tcU3GPXv6HdATMU6J7EZrcpIED91WxTiN7p/Z7r90gvUNeWFv/ZvX4jlJKeDxlzahfd3pp6tQ1sVUUfy/NSFNHPdLnVLbKBj6YNDe9K9l/dg0UtStwaAwL41YyX9Z9aaqOq12jSoTe/cM1RdU3hk4s/06/4TVJ9fxIeu7kV38PWgruebldto1JtfU1qSk7594kZxLISgaR2lPhfgxV289YC6FmDcu9NoD1sL4WhRN4OevaE/jep7vhACPcf4JZ2ydDNNmL2Gth9RrI1Hh/WmId3aiGVw5Ewu3f7v79S1AHgGL98yUF1TuPPtH+jAKbWRTQcabPS889Mv9PXKraKAefq6fvz3Wovr1QML6I0fltPEBRuEIMYKCpWnrutLN/N1pycnqlsDnGFxenPaCvr3zNVRPU/jfdnH1u7d//lRLA88vzk/T97ftbVYH/rKZJqzca9Yjpbzm9alN++4Ql1T+P0HM4VlXRK4vvuu6EEPDOkp8paR7HwXvfPzL5x/V5VLv8G4xc+PujJWGdEBJZozqUKJsFTJw1j8tm5g8dskdjnqN1LEb/I7fAQESTmvzZlEaeOeEMeEiN/XH6utvTgeaAIXBRA+cTi+r36HP0sSv2dGXkJ/GtlPXSNhzdW96w1Rqf7pA9eK+qWSmLdpnxCSaEtelNZPj+hLj159kRDYksBveuWbJfQPfnHENYahS/P6tPKVO9U1hUHPfyrE7r3fXk2105LVrVQsfrV427EJj6hbo6PH+PeFoJrxzPWX0FPX9hVWXyQgrO/PWUtPfDqH/jHmCho7sIu6RxGhjg9zoWngKn7Rv1OFWuOCP7wX8rLikRdOekpdU/jDJ7OFeHxw3zCqmRJa0OiBsEN8V+6MriUZfw/PEoIfzfOECI6fNJf+O3+9usWc/3BBpr8vWw6epN5//FBsv6VfJ3WrQmnEr0/7JjTv2dHqmkLfZ/5r2gqsgWt9eGhvkX9Luo/A5fbSG9OW08tfLylVgRItmmLEATIs+uMpXU4iJogMfxL68IkuLWb4leOEmPF3cP6wYqRZbXwuPkb5DWr/wGiScHWR1POH/TvBmHWJubJLK1r8wh1RCR9AKbzi5TupdX1lSF8kYOEteP52IRDRvCgAmeyVWwbRt4/fSAkO3CNzzC65Z5uGNPmh64KEryzAtUx9dCT9aUS/EoUPwCIcd1l3mvzwCM5GwcdH9+TCY1ZADGULasojI6J6YWER4hldf1FHdUt48Dy+eGSksEijfZ54Fu+OGyp+Typb3uEQPR0MwFIzCh8QvSzKGBTayIOv3jooqvsIcE+Q12ezJV4jJdQatorwb0W0IBOKe4j/cLpISRUrHIq3zplItvSaZM/MEolq1mZRgpDhGN7PAiWWw5ku2Izj2J3VC2bJSfwA5UP7/aoKRFPfZzwmLSmRvuEHbMzIR87m0oodh0TdjRlw9Ra+cLupC6ABF3PmH28x7VwK4L7hb4Sre4Ll8xkLWbjLMru1L940IKJgurk0xjAxJKP7COtM26dPeYVu9YgAn7CVPFw3WkBPodsjqgjg5nq86I8ZAG7bTX3OU9cUwuSQuBjUqUWQC77j6Oni6zG73zh2AlvLHRtzXo7AxN8ND7lu3Lfpa3fSS18vppe+WkyvfLuEft6wO+T5XNuzfYjbqccoaK0b1KY7B3ZV14IxE0orwf2AWCMPmqG9H6jWMKN328Y0bfwoUXdeFsTv9oqnY3KKcGcVx/vIxvk55YaxlFC3vrJdBSGs8ia+VSxG6IhsRz+/cY+L1SC399B+Kvh+kk74GPG1MG96BGJp5DC6vXrgbr745SKaumyLeLgaqBe79ZJOou7IKJJwlQY+/0nISw7Qp+rq7oE6HID6kOe+WEhfLt8i3CEN1N/d1r8zPTG8T4gl9c/pK4W7aMTM7dXAo5qxbietZRHC8pZDJ8Xf1FPaBo/x1/ah52+8VF0L8NniX+m92Wtp2faD6hbFEhjStQ09yd8JVwjA7ewQh9sLXJ8Fu70aOPaPk+fRD7/sULcojVkPDe0lrsNoiUHEMH7YjCev6UMv3BR83RD4EXw8xNVIxyZZNIUtXaNHcdM/vqZvV21T1wIY3V49yI/fr9pe3LAwadFGUV0QC7G4vW+MuZx+d+WF6ppCPuePF79aRJMXbwp6P1D3Cev06ev6htxPrbrFasIX7zGhe9GgbZGEjw8VR6PxIS9HbNbjR3RmcUC4k0RAObEQsliTFew6doa6PT6B/jVjVdCDBbCQXv12KV04/n3RKKGnV5tGdO/l3dW1ACjljcKHF7HHk+/ThDlrg4QPoCUWojjguY9FvYkevKg9YhiGtH7fMer2xATxEr/AYo4MaxS+0oIW8D9f319dC3DfhBk09u0fgoQP4Frwovf/80TLfkO0fLViK3Xn+60XPgDL9K/fLaUuj79Hh04H5+Mru7Smehmp6lqABrXSQgpNCN4gLvjMhA+gzu7SZz8Wn3reHHsFOSNY50b+9v0yav/Q2/TgRz+JZ4kUq/DFAgopo/DBA+r99If0xo8rQt4P3MPX+Dde9MePQizB63q1pxG9Oqhr1mGR+LFQ8T87u622jFqcMgLJ6eTt6rZatXiZP3FcMjKHicAFbYpSAIu1yzohixWvz0+3/etbOmh4EYyglL9HbX3Tc89loeL3yLDe6pICyo4x//d9iHgagSWJFlsjDw7pqS4FMLtdaIS58qXPhKVXFqDezmiZfjB3HX04b526Zo6bLWO0XKKQMRJlTokJCNy97003tcg19p88R099NlddU8C1XcWWqhG4n6gD0wPBL6mLBwq5+96foa4pNKyVTtdw4RgNaCR55vP5IQViWfLosIvUpQD3TZhe3FofDhTuZu8HejhYjQXix9mO/9mz6lH6qLupxqh7OI0rTojMnDpidPF6+s2/pfRbfktJvUNLfoWKEa94+WLpZlFHFQ2oy5m9cY+6ptCB3RqY/hqwHLQhRBqwfuCCRgPExFiyX929ranYGZm8ZFOIVWklsIz0QNSemTJfXYtMQZGHnv1igbpmHWb3ZcbaXVH1y/yOXUnU2elponuWGlca6r7wLDHcLhpgDRufZ7j6UiOo8ihPIP7oFqQH78aPa4Kt53AgQgx6Q+hB/R96GVhJ/OInnrlP7etngph20mRfmMNDqCBLLlY+XrhBXYqOj+aFdlno2iJQ/9mrdbDwAdTRxMKkhcHHo+WsTf1MdU3B7LEt33FIXbIeNKR0alZXXVP44ZftMXUW/nblNtEnzErM7sOv+4+rS5GBhWi0RhHqyYixvtKsP2QkNhp+T+dmynjlSOQUFNFmg8tc1pzXpG5In8VPDXmxJD4xvE9oPOnRyry+t7RYIH6ca5BxRIQUE8Jt5y+5t6wl19I5SlqmfLo3rOB9Vc/6M2bMkli3N9SCa1E30IEWrXRGNh0w7ycXDrPfhEYRPcYuI+DEuchudTw0z8oIakEF6/ceU5eiA5ZirPeiNMQyGsco3sZuHXBTjS4vOvuikSXapI+jBxC0oSROVECQUUTNNrLpoBV5N/S88WBJnR86LIu5dM0IK34kRna4Vy8Ws7C5Vy8h95qlIuKLUNMqYvEB1AnFOjTHbISBvl+dWZ8oDF+LhcNngiuVAYYT6fEhxqGBwqKyqxsy66Nm9jtLAiM6rMQsu5kYg2Ex1gsa654j9c0rLdG4ga4iDEIoX8z65h0P050lHMdM6rUz04LzbrzEL35iyFgpQQZBXz78DFgg6HgsMo0Y12GeIyshiG4RK2ZDmdBoomFWyW6sVyoJs35cxoYGM8vPbJtVmF1XLZNheiWh9WzSMFqTlQ2vqP6xlqgaMCrgtnhMrtWskI2EWd61Ol/GL34qYorJlQvItWI+p3lKWj6P/CeOUdHqRWK5eDsf4969TeRgMYBNiJ6Dl+EWoCN05c7IRvBzo3FB9DRj98+Ivvn/dF5oHVisIoEAAUZOlvPgcSPHTVzqxpmBscHRoh9PDGItGMqb07mhDUio1EeH5tKmaBuJypszJteaEWNjRYNaoe+T1eN9LRM/TDeZ0L4zpws4dVFShy581bXJ2Za383LxdhzTsCklDRxGqaPvp9Tb7qPUW+/lNI6Sh92olFZVTAD7dWymLkUHhsMZ2ayrF9lu0gnXLFBCJNCB2UisdS9Wg7oxY+QZ/Rwb0YDhfmbXVplB/aFxpM/Oo6eL+9yVJpV3K260mHUgjzXUvWnetbie1zLxI4eDHBmZ5KgVnDBBEfr+hWxPSSNbWrryHV2yp7NFhEK8kpfkRu4Z3E1dig7jWEuMjNB3lVmx83CQGwxu6nO+ulQyKDvuNvwmxLNDv7SKZpGhlfO8JlkiRYtZf7mqwPIdwZ23r7mwfUg1xP8CaPk21oGPGRCIghQNxryLLk4rLO6FYJ34xUw4cWNHuIoJH8DkPRi+Fg2PXN07ZLgSQlzp68MwDMjYF/DaXu3DDu8ygigaGFGgZ+oyJXSYlRifVDSv8g+rt6tLATAsKxpjH6NDwg0trOwYR4mgLyc6fEcDhhDq50pBijYvVATfGYbewZL7TY+26lpkEBzC2McVeQat/FZSceKHtyasyImawAj7Kydv3XmViAQSidsu6RwythNMNAlV9PLXi9UlBVgJXz9+Q1B/QDNuuLijmGJQD8S0LNykPEOMObRqlhS9A+Oejf300In1/XuHRYxygkAQmI/DrLGoKjB58a8hI4D+dtvgEl14jE/GGGr9LHntGtYRQxCtBGL69t1D6POHR4i4ivGAIWzGcFQf3T9cBIuIBKIdoSA08vI3S9Ql66gw8VNac8IV9by9Clp/iMDyDYvTR/f/JiRUFYJAfvnY9SI2nNFlw8Bts3lP0dnYKFjoL7b4xTvo4at7iWi4Gug/h/G7y/8yVsQUNLpTf/p8fszdcaLBrMvOK7cMjBgVBp2C7zcM1wIoGH75693CgtZbgRA7BBBY9epdMbnHlQ1YLmMMAVeRF+Y9N1q48sZnhmeNIBoICWXkyUlzQqpF4qEbCx/yFWbjw1haRJ5BfiotcH2Nw/7QBWb6UzcLIUd+1UCAXlw/QlghgpGxq8yb01aWyVDL+KO6+Dxk8/nEmN2kwcOxRd2hfBQtm0eJF/YV4av0ePdsI1tyGtkbYfY3Dbb3crKpcBZnEK0vgz+KqC5adxl+Y8pjbK8xqgtKOLTmGd1M9F87cDKbWtarbTrQHeCYro+/F3bEAgavL3phjMicZuD72XmFIvpHOD5ZuLE4mq8RnBeCqeeyFydFPewKw7h2vvX7El1Ws2CmKAggeGZAIFHBXYOtSIRcN4op6i7hAmuUVTBTRBWOhjl/vo36dQjMWYzI02aRpQGCtyKGoRGMxtiwX7HmkGfC9SD4+4/L6enP5qlrwYQEM2XR6Pr4BHUtPLD4IHx6EGyh06PvqmsKsQYzNYtKpIGGr4OnckibWc8MDAVFxBurXV4QvniOFk3rXEXkWjqXXEvmcJpdnPw+L7lWLgzahuQ5fIDcu7eSa7G2TR3h8esaVfjKXsSsAi9qnz99FBJ5A5kX7lw44UOGGfjcxxGHauGhD33l87BDofA3IgkfxviGEz4rgBv33mx+ZqUAg/oRnt0MhIxCFBrMa2EUPkwDMPfX4PrQyt7PTw9Cnpm5cbB4MOk7Ujjhw70OJ3zxUFZdhW755zfCszEDnksk4Zu2ZieNfP3LMhE+EL/4qSQPHEppI26ntJF3cBpLadfHkHA8vjdiDKVeN5oS2p7Halo2D6MsYHtThORBuHCEWS8JdPfAC9z/2YlRzSiGEvJytsZQjxJtRoBlNJotDzP30moe/u/P4oWONMeE2eOExfzYx7No+F+n0IZ9JQ8PRMw+xLGDcBjPV9UmnMfzv/nNb6KuikABCVf3gQ9/UrdYC+bOMN7Cd2eVrlDTA8MAsfjgAqPFNhpwT5CnRrw+tUzD2DscnQc/py6XDr+XHGk1KOnSISW6PtFiS00nz5ZAA4DN7qDEHuw6M0VrlpK9dh1KaNWBfOwie7Zt5APwhznxZ3m4vZee15z6nxfo1+fyeEQsMtTBIJDllCWbKYeFAJX3GP3hdDhE5fSsDXvozekr6J53p9GCzftj0nccOmfjHvq/n1azq5sjrATUlTh19YcQhxn89x9nd+1RFpVo+kWlJzvFAPl97J5rCdFjwkWfNgO/DdGNEYT0V/6bu4+fEUKIAkE751fLt9DZMBYu6ocQn/Cndbspu8DFGd4nOnTjxYE7O4tdH9RZPjpxVnHdT7tGmaK+TDs/3FgzC6N2Wgq1YetROw4JMQHNxu3iueqPm7txb9R1TWi0wO/Vvrtq5+ESAxfg3KjTxdjm5ESnmIVP35iDERwIAYWQVDezBTXfEOnEDON9gTfyvUnruhEIDvJuo8wa4nk+9sks4TUYqcnPBZ6Gdn4kBJooKTDFsu2HRBXCnhNnRaMY8q6+cQt5BfOJ/GnyfPrdBzOingslHiyYvc1NiZ26U9Il4UNrl4bcD98kfwG/gDa/WudnMoFRJanzQ11N1l1/V9ckEklVwBK3F7H8rMaeWUcInyiGykHQJBJJ9cIC8fOTjd1eqxHnFH5hfIapRCKRmGGJ5ed3h87MFS+o51OQ4ieRSKzHGvHLjTxvRWnwFeQplp9R+6QLLJFILMAS8fOdia33tc9VSO4NK8m1bL5IRSsXkeeEIbKxycxuEolEYhWWiJ93r3knRiPe0yepcPb3lDfhNXLNnUbeQ3vIe2AXFa1bRoWT3qH8T94i97aN5M05Rz6IoTTyJBJJGWGN25uXS96DwT3ujbh3bKKCT/5Nnp2bKanXAEq9dzylXj+WUm+8i9LHPUEpdzxEjnadyTX/R3JNm6J+i2EB9LOlmPvW85Tz9ktEhfnkL1L7aFWxjq0SiaTyYIH4sTrZbFS0fEFYLfIeO0yFM78kR71GlHLr/ZTY6xIR/FQPYvwl9WZRvO0B9os9RImJlHjRYEod/QCl//4ZSrv3KUq59nZKunQo0bmzVMDnI0/4YWESiUQSibjFDyHnEYDKe/QAudl9NeL3eKhw+hfkyGpAKTePI0eNyCHL7WnplHzNaEoeOZaSevQhR01lRjObM5ESGjUjZ+cLKWXUOLJn1qPCn74R+2SDsEQiiRXLorrYfMoYvKSrridn6w5iGbi3bSDXjK/YrX2QrbvgAJ7xUrRmmZgPxI9ACCLBCLXAmC0DmtdKoUua1aEmNVOobmoiHctz0a8nztHCPacp1x15zGOnejWoZ6Pa1LhmMtVMSqBD5wpp79l8mr3nBOWFmWmtCR/7RN+2tPN0Hv1rRWi4LPAk78c5n5u3jU6bjMvF/kY1kumFhdvoVH7o/v7N69D15zWiGTuO0YydoWNzB7bIous6NqSXF+2go7p5HS5ukkk3d25Mry/dSfuzQ4dFPdCrFbXOTKXXeD+uVaNT3Zo07sLm9N7qfeLeGbntgibUrUEGPfbzJnVLgCta16Vh7cwj43y8/gCtPhw8IfiYLk2pW8MMemEB35uCQFeup/q1pbREBz03fxt5Ygwp9fcrOpHTEVyR/c2WIzRvb2iD4a2dm1DvJkpYNAQdOM755UiOi9YeyaZ1x8KPB7+zWzNqUzuNnp67Rd0SYFi7+nwfzAckvL9mH204FnxPMzivvTioI03n5zvT5PkCXA3yQYesdM5zqWIesgM5BbTjZC7N5esK5w0O4LwxgvPGjB3HOe8ExyX815DOtOzAaZr8a9nNHw0sUApMPqQkXKlrxlQq+mUpFcz4gvK++oiKlsymhPO6Wi58ILH7xZTQsj0vBe5wZRzg3rV+Bj1yUWtqnpEqMtI7q/fSykNn6PKW9eiRi1uJTBaOy1pm0bgeLahWcgJ9tfkIvffLPlp7NFsI6Xh+ESGGkWiTmSYEzEjbOmlC+EoCPYsGcUY149Iw260AUVrGXNCUDFpRalYdOisKAaQzhW4hqtr6tlOhPQt+5OcELmsVmGAdhVBDvpcQgliFT2PLidziv4uEZxkOjBXHMW+v2kML9p6iDM4Dd3ZvRkPalm5EFQRF+7u5Lg/tOaMUjEi7eDkckR7BPT2a00guAHO5EJ64fj99tG4/neXC4poODen+ni0jfhegUGqQHtvkRlZhjZkkrpD/U62uoiWzRGutPSlFTFzk7FL6oIglkXjRAGX2TIhe5dM9Sk5w0K1dmoiX7a9LdojSFdbYfM7MyHRnXW7q29x8MmZkiuGcidbzd95cvpu2nMwR31247xS9uWIX1UhMoBvPDw73bYb+BdYY0Dx64erduDalGiIsX1CvprBgywIUYAUeL9VNS6Kr2lgzUREED/cOCZFx8j2e4vUcV6j1DEt3xcEzdBFbX+lOpYAZwr8F51my/7RYLw25RYHfgXSWzxcOBPzFMdtP5dESFi7kgXUslvgdzTJin8P2FIuS9ne9/K7ke3zF6+E8iEj0aZrJBUJN+mbrEZq08WDxuT5ni+2LTYeofZ10YeFFIt/tZSu7SVD33fKyX6wRPz+ET5ly0t60FaXc/iClcUoZNoqS+gwmR/2SX9DSgoYSRHlRFLDy0bVBTUpy2OknE2thD7uub63YQ9O3m7sUPRsr9Z3Tth8N0fWDLKZr2AXqzJnPKExAy0C7uUSHK1grOTBpdh0WLWRa7BOEuXd4+Q7nFAq3CxldzwC2SAPfVz6sJIctE1jJl7NlEI2FWhbAlUe4ssGtsqgdW8pNWXDMnkVZgb9tZDq7iQDVIBVNb86fuUUemr8n1G1fzAVENhfsvbjgNEPz0KZuOiwK+St17rheCMsSa8QP8A92duxKqdfcyoJUvg/GnsXWQXGO5Fe2vIqOKKjH1gvYfy5yyB8z6qclCtfnaK55qzbq/ZBRsiJYYGuOnKU8Ll37NQ9UO8CNPVXgos0nSu5IDitpMVsdKMG1TAk3Gu60WV2VlczefUKIr5XubyzAKlvEVjbu3dVt69OR3EJaye5zPLTPSqcHercsTuFe9HDbUXfqZrOtLueNiqYei9Y+zoPh3rY9Z/JZ2CLP53I0z0U/7zohxK+83V+L3F4/JbRoKwKaVgR2TIMJwatEoqcRTwxarwXX42WrfAGLVH+23Jx2m7AS4cbO2a0TLljuEcD30/h7PRoqlujl7EYfYjHffdr6OUH04Oo/Xn+QsvhFv7KU9VzxMnPXcfGStKydRjNVqyseYNHuPJVfnEpjRnr9nKsqoDAwAiOjpBBy0VSNztx1jE6wCN5ucH/LmvjFDy9oQqIIZlpRoBO0yEW4caXITGXJfi79AEr8WDmQXSgmtWlV2zwMfse6NcjFlhmso0jAcrPzeVB/1a9pHXLzM1t+MPp6q2x+YVExP7hlXeE+d2U3GqV1cUYNc8+L1KjTCYaJeRJVM07bbwQvlPYNWDpoEbyiVb2A+1uOVRyok0LLMizgSI0T0YJnhdZNLYW7knDlHhpcUI98LIw3UJ7syy6glrVS+XmGygieeds66bQ327whJSCa8NSIJm44QA0N7m9ZY4Hl56fE1h3Y+jJ/QcsD30lt8hTkmPJ7MaLhV3YtUaoNb9cgxKzvUj9DNOuP7RaY+EbP8oNnRMX/TZ0ah7TqorvI+Sx+S/afMm95LM5bfirgFxjn6t88iy5pkUkL2ZJDhXdJpTIkSDtk7p4TQnxu69yEzhV5RHeLwAsaLG4aqJcEqPjWg4IAvwn3xQyf4RnC/T3IluaVbUIbbsoDv88WlwVvFTWSHOL+o9DAM6xo5u89QSnsEdzSubEopDWga6M4z8JbmLc7eKIoI1oeQoOg5v6WF5ZYfvYmzdWVisGepe+/Zf4iVhRoLJiwZp8QmvH92og+bCM6NKSnL2lHd3VvJvpvfbnJfOYrVCZ/uHYfZaYk0vMDOtC9PVvQyPOU76KfHLpN/LDdfO5W7S5oBew8Fi/UP6LlcpHaWmkwyEzRjoGQoTtEOxYuvHjItMWFd5gCZ192Pm09mSP6l43o2Ei0Ut7RtalobEFGhwCbYTc8Qxz26QZdn68S3PTKDOpLcR+01IItp3Dg/uKYoW35vnVpxs+9PdVPT6KJ6/aLltuKZtvJPPpu61Hq3rAW/WVgB/Eb0dfyLwM7ioYONFiZ9cfUE8hDAfe3vIh7Dg90bk7q1J3s6kiMisBeryG512N+W76TuJviQ3dXKxj0gVpx6Iyw0NBiiA6hOSxsS9n1nLLxcMROzqfy3bT60FkxF0hz/m7r2mmcQYpoGmes77cd1VlfwSQl2MWLtu1kLgtsEVuQPkpld2n76TzapDZ01GJRRYddtBqbuaDoToFKf+34bF7OSHLSt5zhUR+J0h6dt3eya6/vjKwHriKEH62lnevX4Ov2ilZUdN0IR6MaSVTIvxddfDRQEMAFTeTr2nQ8x7SLSIM0WNa2kA7LRnAfcV+38L2Jhgb8e3CfSzpvSbTJTBX3LTPVWZzwLM0atCByuL/iuBSneJ4Qm0/ZPdxr0jFcA26xh/8GnmkkWtROoaP8t7efCn8PMG1qO7bad3CeORCmwQ49FjZzAVeDPZPWmemigEUhOXnjoYj3qxbno3S2ZNF1B3lTYxfnJVw7GvNw7rLEgjk8XJQy5AbR4FGR5H83iTxHDvAVOVTxs8Cjl0gk/7NYoBA28p0tfadPq3DUqRdUD14ZR3pIJJLKgyXmkXfvDnWpAklS+xNJ0ZNIJFFgjfgd2kve4+aV9uWFPwf1Uix8qOqT+ieRSErAErcXjQyFP31FPlfsoxiswnfsoCJ8UvkkEkkUxC1+Wjw/f/ZZKvz6E/JhovFyBlan7/QJRfeqcDcIiURSfsRv+YmuJZzsNvKdPEb5H79FhQtnkudE+bnBRfz3xG9QTL/iD4lEIgmHBcFMffiPbEhYRoIJhoaH5BTR/8937BAlDRxGzgt6Kl+yEISz9+7cSn67nRO6ubCeC/GzsR5KFZRIJOZY0uABoREBTSFAGOeHYQEQoSKXOgubnQqXzCIvu8bRgLrD/C8+JPeOzeqWUGBZom+fd8cW9e+pSfi+UvgkEklk4rf8EGECVp44i1+JrqJZfpzEqEgYg9iWkkbJw0ZRQoPw8f28Z0+Ra/pUFk12m1nAbLUyydG8jRjCZk9NF/V73t1bhYsNkYPwweJD3aPWwRn/SfGTSCSRsED8tK9D7PAh/hNblDBTWIJb7OUPZZ+jZXtynt+dbJl1yZGhzlOQl0NFa5eRZ+NqNuswdAlixkl/fkXZFGBZQvhgcWJZOx6CKYVPIpGUQPzD2yQSiaQKYlGdn0QikVQtpPhJJJJqiRQ/iURSLZHiJ5FIqiVS/CQSSbVEip9EIqmWSPGTSCTVEil+EomkWiLFTyKRVEuk+EkkkmqJFD+JRFItkeInkUiqJVL8JBJJtUSKn0QiqZZI8ZNIJNUQov8HkHeunSyRgxsAAAAASUVORK5CYII=;" vertex="1" parent="1">
          <mxGeometry x="360.78" y="70" width="148.45" height="47" as="geometry" />
        </mxCell>
        <mxCell id="pl3pOV0jGXb2XWtJpDfa-28" style="edgeStyle=orthogonalEdgeStyle;rounded=0;orthogonalLoop=1;jettySize=auto;html=1;endArrow=none;endFill=0;" edge="1" parent="1" source="pl3pOV0jGXb2XWtJpDfa-24" target="pl3pOV0jGXb2XWtJpDfa-26">
          <mxGeometry relative="1" as="geometry" />
        </mxCell>
        <mxCell id="pl3pOV0jGXb2XWtJpDfa-24" value="192.168.51.93" style="image;points=[];aspect=fixed;html=1;align=center;shadow=0;dashed=0;image=img/lib/allied_telesis/computer_and_terminals/Server_Desktop.svg;" vertex="1" parent="1">
          <mxGeometry x="375.84000000000003" y="190" width="118.33" height="150" as="geometry" />
        </mxCell>
        <mxCell id="pl3pOV0jGXb2XWtJpDfa-31" style="edgeStyle=orthogonalEdgeStyle;rounded=0;orthogonalLoop=1;jettySize=auto;html=1;entryX=0;entryY=0.5;entryDx=0;entryDy=0;endArrow=none;endFill=0;" edge="1" parent="1" source="pl3pOV0jGXb2XWtJpDfa-25" target="pl3pOV0jGXb2XWtJpDfa-30">
          <mxGeometry relative="1" as="geometry" />
        </mxCell>
        <mxCell id="pl3pOV0jGXb2XWtJpDfa-25" value="192.168.51.94" style="image;points=[];aspect=fixed;html=1;align=center;shadow=0;dashed=0;image=img/lib/allied_telesis/computer_and_terminals/Server_Desktop.svg;" vertex="1" parent="1">
          <mxGeometry x="700" y="100" width="118.33" height="150" as="geometry" />
        </mxCell>
        <mxCell id="pl3pOV0jGXb2XWtJpDfa-29" value="" style="shape=image;verticalLabelPosition=bottom;labelBackgroundColor=default;verticalAlign=top;aspect=fixed;imageAspect=0;image=https://miro.medium.com/max/336/0*7pLYtIrRNXSsER2M.png;" vertex="1" parent="1">
          <mxGeometry x="927" y="125.46000000000002" width="116" height="99.08" as="geometry" />
        </mxCell>
        <mxCell id="pl3pOV0jGXb2XWtJpDfa-33" value="" style="whiteSpace=wrap;html=1;dashed=1;" vertex="1" parent="1">
          <mxGeometry x="870" y="538.25" width="210" height="86.5" as="geometry" />
        </mxCell>
        <mxCell id="pl3pOV0jGXb2XWtJpDfa-34" style="edgeStyle=orthogonalEdgeStyle;rounded=0;orthogonalLoop=1;jettySize=auto;html=1;" edge="1" parent="1" source="pl3pOV0jGXb2XWtJpDfa-35" target="pl3pOV0jGXb2XWtJpDfa-40">
          <mxGeometry relative="1" as="geometry" />
        </mxCell>
        <mxCell id="pl3pOV0jGXb2XWtJpDfa-44" value="51.93 監控 51.94 的容器" style="edgeLabel;html=1;align=center;verticalAlign=middle;resizable=0;points=[];" vertex="1" connectable="0" parent="pl3pOV0jGXb2XWtJpDfa-34">
          <mxGeometry x="-0.0591" y="1" relative="1" as="geometry">
            <mxPoint as="offset" />
          </mxGeometry>
        </mxCell>
        <mxCell id="pl3pOV0jGXb2XWtJpDfa-35" value="" style="whiteSpace=wrap;html=1;dashed=1;" vertex="1" parent="1">
          <mxGeometry x="320" y="460" width="210" height="86.5" as="geometry" />
        </mxCell>
        <mxCell id="pl3pOV0jGXb2XWtJpDfa-36" value="" style="shape=image;verticalLabelPosition=bottom;labelBackgroundColor=default;verticalAlign=top;aspect=fixed;imageAspect=0;image=data:image/png,iVBORw0KGgoAAAANSUhEUgAAAT8AAABlCAYAAAA7xOSOAAAAAXNSR0IArs4c6QAAAARnQU1BAACxjwv8YQUAAAAJcEhZcwAADsMAAA7DAcdvqGQAACgpSURBVHhe7Z0HnBTl+cef3b29DgfH0XsHBWkCCogUG0hQwYIFEQtRE3tUNDHWqInGmJi/RrEEFRGxK0XpvUqV3nsvx9W9bf/n987M7ezs7N7u7VzLvd8PLztt53Zm3vm9z/OW57Ul3vyynyQSiaSaYVc/JRKJpFohxU8ikVRLpPhJJJJqiRQ/iURSLZHiJ5FIqiVS/CQSSbVEip9EIqmWSPGTSCTVEil+EomkWiLFTyKRVEuk+EkkkmqJFD+JRFItkeInkUiqJVL8JBJJtUSKn0QiqZZUSvHz+/1K8nnJ7/USJdipxj2PiURJSWKb2KceJ5FIJLFSiS0/FjWha36y+3xiC7ALsQvsk0gkktJQ6cRPseRUcbP5+R8LX4MmYp8gI1PZxvs0AZTWn0QiiZVKE8Y+IGCaqPnIkVqDnH0GkbN1B7KJfbyVj/NsXktFKxeRr6iQt7B+i53KETabdqREIpGEp8LFL1T0GLudErv2pqRuvcmW4BSbNUnTln2FBeT+ZTG5Nq0LfE+KoEQiiZIKdXuLXVwk8eGnhGatKO3GsZTcs58QPl9eLrnmT8fhAteKBeRzucienEJJfS+ntBvuJEfDxuK7iggq55OusEQiiYTD0Xnwc+pyuRFi7fG6vXYmpVwxnJK6XyyEze/zkXv9SnLNmEq+U0cp8cJLxDcKZ35F7o0ryZaaTvY69cmekkqJ7TuTrXYW+Y4dIj8Lo7D+dIaftAIlEomRchW/YNHDso1sTicl9bqUUgYOJUfN2mKvZ99Ock2fQp5tG3nFTZSQUCx+RWuWEeXnkHf3NvLt30W2OvXInl6THJlZ5OzYlW1ZG3mPHVbPz0gRlDBtG2RSzZREOpuPwlESL63q1aKsGql0OrdA3VL1KJc6P9N6PZufnG07CeGzp6WJTd7sM+RaMJN8LH6BA5nEREr/7XixmPvBGyx+uWJZwIKW0KELJV48iM+TLjZ5s0+Ta+k8FtFdYn9AAFlspQBWKxrVTqfvnriJLmheT6wv3LKfrnttKuUWFol1SWzUqZFCP44fRd1bNhDra/Ycpd+8OoVO5uSL9apEmVp+QaKnffA2R/2GlHrVSEo8vxurbyL53W4qWrWIXD9/S/6zJxXBErWREC4WrAQnJfboiw1UtG65Yg1Cw1Qh8504Rp5Na9lCdJK9XkPhCjvbnkeORk3Ie/ww+QtQOuFcODogqlII//f5xx1X0BVdWqlrRM3rZogeA/M37VO3SGLhLzcPpGsubKeuETXkwiU5MYF+Wr9b3VJ1iLvBAwJnntAxmYWGl4Xe+PxkS0lh9/ZqSr12NDmy6otd7q0bKP/Tt8m9aiEf4xEC5WfX1W9z8KedP/m7QSLF+/h/vx37OdmUri7+IhcVLZpJBZP/I9xmkNCouWgQSWKrEO41foMmwFjQ/15J6WjJ7k//js2KU9/2TdU9lQPNQtFzYatG6pIkVszvZ0N1qWphQWsvBAWJxU4kbV3ZJZZZnJK6XEhpN91DzvbnCy3zsrVW+OWH5JrF1l7eOXEmIWIsesrP0pJe+BisCjFU97H4QSS1w3xnTlHhD5Mp//vPhBtt432Bv92Jj9P/PlWgOUkRLB13DepKs565tTj9MP4mdU/lYPXuI+pSgFW7DqtLklhZvcvsfoZuqwrEXednF6Mv+BQQn6AzKSuOuo3I2ambaJQAvqIi8mxeR549W5VDoF/Kf+oKFsQKwwdAlNidTRumvFR5M74km6vQ9DiRxBqWeYEtQ2e78ymhXWd2nSGqSr2iZ8Mq8p49pZyDTUvvYXaB1PNJVzg2Xho1gB4ffrG6xs/H5abMsa+raxWPsc5v0Zb9dK2s8ys1qPP7+g830EVtG4t11PkNe/VzOpVT9Ro+4hY/EWygjMEP1MlcEFZI1bn332BVhMstBTBWKrv4abRvVIdcbg/tPZGtbpHEA1p7HexV7Th6Wt1S9YDvWCWxXJ6gqnEVA5LKzLbDp6TwWcju42ertPCBuC0/m8elCodBPYoXeUEs6/aJbX5KHn4rubeuJ++OzWKro35jcl52DRVOepvXWN604AX6ri7vv04JLdtR8uDh5GF3tfCrieqx/FH8J3hBuLTFG3TgWPV4aD//86HRBAvYxstWWX7JzgRqllWTXYVUdgvy6ejZPDpXYF0/s7o1U0XKSE2mM7kFdPxcfpn1u2qcWYNSEhNo59Ez6hYFqy0/h93GrmoNql8rjdweHx0+k0Mn+LoqC5npKaKRp8jjFb/NKnfPznmuXcNMqpeRJlqj8RyPZ+eXSReSxASHsNyOZufR2TyMjy9/cB/rcd6tzZ/Z+YXiGZf3c46/n5+niDUKpzCcJmhV3S+abvHJH7yY/Jubyb1lXbD4DWbx++wdRYjU48jpDIjfhNcU8WORLBY/tcU3GPXv6HdATMU6J7EZrcpIED91WxTiN7p/Z7r90gvUNeWFv/ZvX4jlJKeDxlzahfd3pp6tQ1sVUUfy/NSFNHPdLnVLbKBj6YNDe9K9l/dg0UtStwaAwL41YyX9Z9aaqOq12jSoTe/cM1RdU3hk4s/06/4TVJ9fxIeu7kV38PWgruebldto1JtfU1qSk7594kZxLISgaR2lPhfgxV289YC6FmDcu9NoD1sL4WhRN4OevaE/jep7vhACPcf4JZ2ydDNNmL2Gth9RrI1Hh/WmId3aiGVw5Ewu3f7v79S1AHgGL98yUF1TuPPtH+jAKbWRTQcabPS889Mv9PXKraKAefq6fvz3Wovr1QML6I0fltPEBRuEIMYKCpWnrutLN/N1pycnqlsDnGFxenPaCvr3zNVRPU/jfdnH1u7d//lRLA88vzk/T97ftbVYH/rKZJqzca9Yjpbzm9alN++4Ql1T+P0HM4VlXRK4vvuu6EEPDOkp8paR7HwXvfPzL5x/V5VLv8G4xc+PujJWGdEBJZozqUKJsFTJw1j8tm5g8dskdjnqN1LEb/I7fAQESTmvzZlEaeOeEMeEiN/XH6utvTgeaAIXBRA+cTi+r36HP0sSv2dGXkJ/GtlPXSNhzdW96w1Rqf7pA9eK+qWSmLdpnxCSaEtelNZPj+hLj159kRDYksBveuWbJfQPfnHENYahS/P6tPKVO9U1hUHPfyrE7r3fXk2105LVrVQsfrV427EJj6hbo6PH+PeFoJrxzPWX0FPX9hVWXyQgrO/PWUtPfDqH/jHmCho7sIu6RxGhjg9zoWngKn7Rv1OFWuOCP7wX8rLikRdOekpdU/jDJ7OFeHxw3zCqmRJa0OiBsEN8V+6MriUZfw/PEoIfzfOECI6fNJf+O3+9usWc/3BBpr8vWw6epN5//FBsv6VfJ3WrQmnEr0/7JjTv2dHqmkLfZ/5r2gqsgWt9eGhvkX9Luo/A5fbSG9OW08tfLylVgRItmmLEATIs+uMpXU4iJogMfxL68IkuLWb4leOEmPF3cP6wYqRZbXwuPkb5DWr/wGiScHWR1POH/TvBmHWJubJLK1r8wh1RCR9AKbzi5TupdX1lSF8kYOEteP52IRDRvCgAmeyVWwbRt4/fSAkO3CNzzC65Z5uGNPmh64KEryzAtUx9dCT9aUS/EoUPwCIcd1l3mvzwCM5GwcdH9+TCY1ZADGULasojI6J6YWER4hldf1FHdUt48Dy+eGSksEijfZ54Fu+OGyp+Typb3uEQPR0MwFIzCh8QvSzKGBTayIOv3jooqvsIcE+Q12ezJV4jJdQatorwb0W0IBOKe4j/cLpISRUrHIq3zplItvSaZM/MEolq1mZRgpDhGN7PAiWWw5ku2Izj2J3VC2bJSfwA5UP7/aoKRFPfZzwmLSmRvuEHbMzIR87m0oodh0TdjRlw9Ra+cLupC6ABF3PmH28x7VwK4L7hb4Sre4Ll8xkLWbjLMru1L940IKJgurk0xjAxJKP7COtM26dPeYVu9YgAn7CVPFw3WkBPodsjqgjg5nq86I8ZAG7bTX3OU9cUwuSQuBjUqUWQC77j6Oni6zG73zh2AlvLHRtzXo7AxN8ND7lu3Lfpa3fSS18vppe+WkyvfLuEft6wO+T5XNuzfYjbqccoaK0b1KY7B3ZV14IxE0orwf2AWCMPmqG9H6jWMKN328Y0bfwoUXdeFsTv9oqnY3KKcGcVx/vIxvk55YaxlFC3vrJdBSGs8ia+VSxG6IhsRz+/cY+L1SC399B+Kvh+kk74GPG1MG96BGJp5DC6vXrgbr745SKaumyLeLgaqBe79ZJOou7IKJJwlQY+/0nISw7Qp+rq7oE6HID6kOe+WEhfLt8i3CEN1N/d1r8zPTG8T4gl9c/pK4W7aMTM7dXAo5qxbietZRHC8pZDJ8Xf1FPaBo/x1/ah52+8VF0L8NniX+m92Wtp2faD6hbFEhjStQ09yd8JVwjA7ewQh9sLXJ8Fu70aOPaPk+fRD7/sULcojVkPDe0lrsNoiUHEMH7YjCev6UMv3BR83RD4EXw8xNVIxyZZNIUtXaNHcdM/vqZvV21T1wIY3V49yI/fr9pe3LAwadFGUV0QC7G4vW+MuZx+d+WF6ppCPuePF79aRJMXbwp6P1D3Cev06ev6htxPrbrFasIX7zGhe9GgbZGEjw8VR6PxIS9HbNbjR3RmcUC4k0RAObEQsliTFew6doa6PT6B/jVjVdCDBbCQXv12KV04/n3RKKGnV5tGdO/l3dW1ACjljcKHF7HHk+/ThDlrg4QPoCUWojjguY9FvYkevKg9YhiGtH7fMer2xATxEr/AYo4MaxS+0oIW8D9f319dC3DfhBk09u0fgoQP4Frwovf/80TLfkO0fLViK3Xn+60XPgDL9K/fLaUuj79Hh04H5+Mru7Smehmp6lqABrXSQgpNCN4gLvjMhA+gzu7SZz8Wn3reHHsFOSNY50b+9v0yav/Q2/TgRz+JZ4kUq/DFAgopo/DBA+r99If0xo8rQt4P3MPX+Dde9MePQizB63q1pxG9Oqhr1mGR+LFQ8T87u622jFqcMgLJ6eTt6rZatXiZP3FcMjKHicAFbYpSAIu1yzohixWvz0+3/etbOmh4EYyglL9HbX3Tc89loeL3yLDe6pICyo4x//d9iHgagSWJFlsjDw7pqS4FMLtdaIS58qXPhKVXFqDezmiZfjB3HX04b526Zo6bLWO0XKKQMRJlTokJCNy97003tcg19p88R099NlddU8C1XcWWqhG4n6gD0wPBL6mLBwq5+96foa4pNKyVTtdw4RgNaCR55vP5IQViWfLosIvUpQD3TZhe3FofDhTuZu8HejhYjQXix9mO/9mz6lH6qLupxqh7OI0rTojMnDpidPF6+s2/pfRbfktJvUNLfoWKEa94+WLpZlFHFQ2oy5m9cY+6ptCB3RqY/hqwHLQhRBqwfuCCRgPExFiyX929ranYGZm8ZFOIVWklsIz0QNSemTJfXYtMQZGHnv1igbpmHWb3ZcbaXVH1y/yOXUnU2elponuWGlca6r7wLDHcLhpgDRufZ7j6UiOo8ihPIP7oFqQH78aPa4Kt53AgQgx6Q+hB/R96GVhJ/OInnrlP7etngph20mRfmMNDqCBLLlY+XrhBXYqOj+aFdlno2iJQ/9mrdbDwAdTRxMKkhcHHo+WsTf1MdU3B7LEt33FIXbIeNKR0alZXXVP44ZftMXUW/nblNtEnzErM7sOv+4+rS5GBhWi0RhHqyYixvtKsP2QkNhp+T+dmynjlSOQUFNFmg8tc1pzXpG5In8VPDXmxJD4xvE9oPOnRyry+t7RYIH6ca5BxRIQUE8Jt5y+5t6wl19I5SlqmfLo3rOB9Vc/6M2bMkli3N9SCa1E30IEWrXRGNh0w7ycXDrPfhEYRPcYuI+DEuchudTw0z8oIakEF6/ceU5eiA5ZirPeiNMQyGsco3sZuHXBTjS4vOvuikSXapI+jBxC0oSROVECQUUTNNrLpoBV5N/S88WBJnR86LIu5dM0IK34kRna4Vy8Ws7C5Vy8h95qlIuKLUNMqYvEB1AnFOjTHbISBvl+dWZ8oDF+LhcNngiuVAYYT6fEhxqGBwqKyqxsy66Nm9jtLAiM6rMQsu5kYg2Ex1gsa654j9c0rLdG4ga4iDEIoX8z65h0P050lHMdM6rUz04LzbrzEL35iyFgpQQZBXz78DFgg6HgsMo0Y12GeIyshiG4RK2ZDmdBoomFWyW6sVyoJs35cxoYGM8vPbJtVmF1XLZNheiWh9WzSMFqTlQ2vqP6xlqgaMCrgtnhMrtWskI2EWd61Ol/GL34qYorJlQvItWI+p3lKWj6P/CeOUdHqRWK5eDsf4969TeRgMYBNiJ6Dl+EWoCN05c7IRvBzo3FB9DRj98+Ivvn/dF5oHVisIoEAAUZOlvPgcSPHTVzqxpmBscHRoh9PDGItGMqb07mhDUio1EeH5tKmaBuJypszJteaEWNjRYNaoe+T1eN9LRM/TDeZ0L4zpws4dVFShy581bXJ2Za383LxdhzTsCklDRxGqaPvp9Tb7qPUW+/lNI6Sh92olFZVTAD7dWymLkUHhsMZ2ayrF9lu0gnXLFBCJNCB2UisdS9Wg7oxY+QZ/Rwb0YDhfmbXVplB/aFxpM/Oo6eL+9yVJpV3K260mHUgjzXUvWnetbie1zLxI4eDHBmZ5KgVnDBBEfr+hWxPSSNbWrryHV2yp7NFhEK8kpfkRu4Z3E1dig7jWEuMjNB3lVmx83CQGwxu6nO+ulQyKDvuNvwmxLNDv7SKZpGhlfO8JlkiRYtZf7mqwPIdwZ23r7mwfUg1xP8CaPk21oGPGRCIghQNxryLLk4rLO6FYJ34xUw4cWNHuIoJH8DkPRi+Fg2PXN07ZLgSQlzp68MwDMjYF/DaXu3DDu8ygigaGFGgZ+oyJXSYlRifVDSv8g+rt6tLATAsKxpjH6NDwg0trOwYR4mgLyc6fEcDhhDq50pBijYvVATfGYbewZL7TY+26lpkEBzC2McVeQat/FZSceKHtyasyImawAj7Kydv3XmViAQSidsu6RwythNMNAlV9PLXi9UlBVgJXz9+Q1B/QDNuuLijmGJQD8S0LNykPEOMObRqlhS9A+Oejf300In1/XuHRYxygkAQmI/DrLGoKjB58a8hI4D+dtvgEl14jE/GGGr9LHntGtYRQxCtBGL69t1D6POHR4i4ivGAIWzGcFQf3T9cBIuIBKIdoSA08vI3S9Ql66gw8VNac8IV9by9Clp/iMDyDYvTR/f/JiRUFYJAfvnY9SI2nNFlw8Bts3lP0dnYKFjoL7b4xTvo4at7iWi4Gug/h/G7y/8yVsQUNLpTf/p8fszdcaLBrMvOK7cMjBgVBp2C7zcM1wIoGH75693CgtZbgRA7BBBY9epdMbnHlQ1YLmMMAVeRF+Y9N1q48sZnhmeNIBoICWXkyUlzQqpF4qEbCx/yFWbjw1haRJ5BfiotcH2Nw/7QBWb6UzcLIUd+1UCAXlw/QlghgpGxq8yb01aWyVDL+KO6+Dxk8/nEmN2kwcOxRd2hfBQtm0eJF/YV4av0ePdsI1tyGtkbYfY3Dbb3crKpcBZnEK0vgz+KqC5adxl+Y8pjbK8xqgtKOLTmGd1M9F87cDKbWtarbTrQHeCYro+/F3bEAgavL3phjMicZuD72XmFIvpHOD5ZuLE4mq8RnBeCqeeyFydFPewKw7h2vvX7El1Ws2CmKAggeGZAIFHBXYOtSIRcN4op6i7hAmuUVTBTRBWOhjl/vo36dQjMWYzI02aRpQGCtyKGoRGMxtiwX7HmkGfC9SD4+4/L6enP5qlrwYQEM2XR6Pr4BHUtPLD4IHx6EGyh06PvqmsKsQYzNYtKpIGGr4OnckibWc8MDAVFxBurXV4QvniOFk3rXEXkWjqXXEvmcJpdnPw+L7lWLgzahuQ5fIDcu7eSa7G2TR3h8esaVfjKXsSsAi9qnz99FBJ5A5kX7lw44UOGGfjcxxGHauGhD33l87BDofA3IgkfxviGEz4rgBv33mx+ZqUAg/oRnt0MhIxCFBrMa2EUPkwDMPfX4PrQyt7PTw9Cnpm5cbB4MOk7Ujjhw70OJ3zxUFZdhW755zfCszEDnksk4Zu2ZieNfP3LMhE+EL/4qSQPHEppI26ntJF3cBpLadfHkHA8vjdiDKVeN5oS2p7Halo2D6MsYHtThORBuHCEWS8JdPfAC9z/2YlRzSiGEvJytsZQjxJtRoBlNJotDzP30moe/u/P4oWONMeE2eOExfzYx7No+F+n0IZ9JQ8PRMw+xLGDcBjPV9UmnMfzv/nNb6KuikABCVf3gQ9/UrdYC+bOMN7Cd2eVrlDTA8MAsfjgAqPFNhpwT5CnRrw+tUzD2DscnQc/py6XDr+XHGk1KOnSISW6PtFiS00nz5ZAA4DN7qDEHuw6M0VrlpK9dh1KaNWBfOwie7Zt5APwhznxZ3m4vZee15z6nxfo1+fyeEQsMtTBIJDllCWbKYeFAJX3GP3hdDhE5fSsDXvozekr6J53p9GCzftj0nccOmfjHvq/n1azq5sjrATUlTh19YcQhxn89x9nd+1RFpVo+kWlJzvFAPl97J5rCdFjwkWfNgO/DdGNEYT0V/6bu4+fEUKIAkE751fLt9DZMBYu6ocQn/Cndbspu8DFGd4nOnTjxYE7O4tdH9RZPjpxVnHdT7tGmaK+TDs/3FgzC6N2Wgq1YetROw4JMQHNxu3iueqPm7txb9R1TWi0wO/Vvrtq5+ESAxfg3KjTxdjm5ESnmIVP35iDERwIAYWQVDezBTXfEOnEDON9gTfyvUnruhEIDvJuo8wa4nk+9sks4TUYqcnPBZ6Gdn4kBJooKTDFsu2HRBXCnhNnRaMY8q6+cQt5BfOJ/GnyfPrdBzOingslHiyYvc1NiZ26U9Il4UNrl4bcD98kfwG/gDa/WudnMoFRJanzQ11N1l1/V9ckEklVwBK3F7H8rMaeWUcInyiGykHQJBJJ9cIC8fOTjd1eqxHnFH5hfIapRCKRmGGJ5ed3h87MFS+o51OQ4ieRSKzHGvHLjTxvRWnwFeQplp9R+6QLLJFILMAS8fOdia33tc9VSO4NK8m1bL5IRSsXkeeEIbKxycxuEolEYhWWiJ93r3knRiPe0yepcPb3lDfhNXLNnUbeQ3vIe2AXFa1bRoWT3qH8T94i97aN5M05Rz6IoTTyJBJJGWGN25uXS96DwT3ujbh3bKKCT/5Nnp2bKanXAEq9dzylXj+WUm+8i9LHPUEpdzxEjnadyTX/R3JNm6J+i2EB9LOlmPvW85Tz9ktEhfnkL1L7aFWxjq0SiaTyYIH4sTrZbFS0fEFYLfIeO0yFM78kR71GlHLr/ZTY6xIR/FQPYvwl9WZRvO0B9os9RImJlHjRYEod/QCl//4ZSrv3KUq59nZKunQo0bmzVMDnI0/4YWESiUQSibjFDyHnEYDKe/QAudl9NeL3eKhw+hfkyGpAKTePI0eNyCHL7WnplHzNaEoeOZaSevQhR01lRjObM5ESGjUjZ+cLKWXUOLJn1qPCn74R+2SDsEQiiRXLorrYfMoYvKSrridn6w5iGbi3bSDXjK/YrX2QrbvgAJ7xUrRmmZgPxI9ACCLBCLXAmC0DmtdKoUua1aEmNVOobmoiHctz0a8nztHCPacp1x15zGOnejWoZ6Pa1LhmMtVMSqBD5wpp79l8mr3nBOWFmWmtCR/7RN+2tPN0Hv1rRWi4LPAk78c5n5u3jU6bjMvF/kY1kumFhdvoVH7o/v7N69D15zWiGTuO0YydoWNzB7bIous6NqSXF+2go7p5HS5ukkk3d25Mry/dSfuzQ4dFPdCrFbXOTKXXeD+uVaNT3Zo07sLm9N7qfeLeGbntgibUrUEGPfbzJnVLgCta16Vh7cwj43y8/gCtPhw8IfiYLk2pW8MMemEB35uCQFeup/q1pbREBz03fxt5Ygwp9fcrOpHTEVyR/c2WIzRvb2iD4a2dm1DvJkpYNAQdOM755UiOi9YeyaZ1x8KPB7+zWzNqUzuNnp67Rd0SYFi7+nwfzAckvL9mH204FnxPMzivvTioI03n5zvT5PkCXA3yQYesdM5zqWIesgM5BbTjZC7N5esK5w0O4LwxgvPGjB3HOe8ExyX815DOtOzAaZr8a9nNHw0sUApMPqQkXKlrxlQq+mUpFcz4gvK++oiKlsymhPO6Wi58ILH7xZTQsj0vBe5wZRzg3rV+Bj1yUWtqnpEqMtI7q/fSykNn6PKW9eiRi1uJTBaOy1pm0bgeLahWcgJ9tfkIvffLPlp7NFsI6Xh+ESGGkWiTmSYEzEjbOmlC+EoCPYsGcUY149Iw260AUVrGXNCUDFpRalYdOisKAaQzhW4hqtr6tlOhPQt+5OcELmsVmGAdhVBDvpcQgliFT2PLidziv4uEZxkOjBXHMW+v2kML9p6iDM4Dd3ZvRkPalm5EFQRF+7u5Lg/tOaMUjEi7eDkckR7BPT2a00guAHO5EJ64fj99tG4/neXC4poODen+ni0jfhegUGqQHtvkRlZhjZkkrpD/U62uoiWzRGutPSlFTFzk7FL6oIglkXjRAGX2TIhe5dM9Sk5w0K1dmoiX7a9LdojSFdbYfM7MyHRnXW7q29x8MmZkiuGcidbzd95cvpu2nMwR31247xS9uWIX1UhMoBvPDw73bYb+BdYY0Dx64erduDalGiIsX1CvprBgywIUYAUeL9VNS6Kr2lgzUREED/cOCZFx8j2e4vUcV6j1DEt3xcEzdBFbX+lOpYAZwr8F51my/7RYLw25RYHfgXSWzxcOBPzFMdtP5dESFi7kgXUslvgdzTJin8P2FIuS9ne9/K7ke3zF6+E8iEj0aZrJBUJN+mbrEZq08WDxuT5ni+2LTYeofZ10YeFFIt/tZSu7SVD33fKyX6wRPz+ET5ly0t60FaXc/iClcUoZNoqS+gwmR/2SX9DSgoYSRHlRFLDy0bVBTUpy2OknE2thD7uub63YQ9O3m7sUPRsr9Z3Tth8N0fWDLKZr2AXqzJnPKExAy0C7uUSHK1grOTBpdh0WLWRa7BOEuXd4+Q7nFAq3CxldzwC2SAPfVz6sJIctE1jJl7NlEI2FWhbAlUe4ssGtsqgdW8pNWXDMnkVZgb9tZDq7iQDVIBVNb86fuUUemr8n1G1fzAVENhfsvbjgNEPz0KZuOiwK+St17rheCMsSa8QP8A92duxKqdfcyoJUvg/GnsXWQXGO5Fe2vIqOKKjH1gvYfy5yyB8z6qclCtfnaK55qzbq/ZBRsiJYYGuOnKU8Ll37NQ9UO8CNPVXgos0nSu5IDitpMVsdKMG1TAk3Gu60WV2VlczefUKIr5XubyzAKlvEVjbu3dVt69OR3EJaye5zPLTPSqcHercsTuFe9HDbUXfqZrOtLueNiqYei9Y+zoPh3rY9Z/JZ2CLP53I0z0U/7zohxK+83V+L3F4/JbRoKwKaVgR2TIMJwatEoqcRTwxarwXX42WrfAGLVH+23Jx2m7AS4cbO2a0TLljuEcD30/h7PRoqlujl7EYfYjHffdr6OUH04Oo/Xn+QsvhFv7KU9VzxMnPXcfGStKydRjNVqyseYNHuPJVfnEpjRnr9nKsqoDAwAiOjpBBy0VSNztx1jE6wCN5ucH/LmvjFDy9oQqIIZlpRoBO0yEW4caXITGXJfi79AEr8WDmQXSgmtWlV2zwMfse6NcjFlhmso0jAcrPzeVB/1a9pHXLzM1t+MPp6q2x+YVExP7hlXeE+d2U3GqV1cUYNc8+L1KjTCYaJeRJVM07bbwQvlPYNWDpoEbyiVb2A+1uOVRyok0LLMizgSI0T0YJnhdZNLYW7knDlHhpcUI98LIw3UJ7syy6glrVS+XmGygieeds66bQ327whJSCa8NSIJm44QA0N7m9ZY4Hl56fE1h3Y+jJ/QcsD30lt8hTkmPJ7MaLhV3YtUaoNb9cgxKzvUj9DNOuP7RaY+EbP8oNnRMX/TZ0ah7TqorvI+Sx+S/afMm95LM5bfirgFxjn6t88iy5pkUkL2ZJDhXdJpTIkSDtk7p4TQnxu69yEzhV5RHeLwAsaLG4aqJcEqPjWg4IAvwn3xQyf4RnC/T3IluaVbUIbbsoDv88WlwVvFTWSHOL+o9DAM6xo5u89QSnsEdzSubEopDWga6M4z8JbmLc7eKIoI1oeQoOg5v6WF5ZYfvYmzdWVisGepe+/Zf4iVhRoLJiwZp8QmvH92og+bCM6NKSnL2lHd3VvJvpvfbnJfOYrVCZ/uHYfZaYk0vMDOtC9PVvQyPOU76KfHLpN/LDdfO5W7S5oBew8Fi/UP6LlcpHaWmkwyEzRjoGQoTtEOxYuvHjItMWFd5gCZ192Pm09mSP6l43o2Ei0Ut7RtalobEFGhwCbYTc8Qxz26QZdn68S3PTKDOpLcR+01IItp3Dg/uKYoW35vnVpxs+9PdVPT6KJ6/aLltuKZtvJPPpu61Hq3rAW/WVgB/Eb0dfyLwM7ioYONFiZ9cfUE8hDAfe3vIh7Dg90bk7q1J3s6kiMisBeryG512N+W76TuJviQ3dXKxj0gVpx6Iyw0NBiiA6hOSxsS9n1nLLxcMROzqfy3bT60FkxF0hz/m7r2mmcQYpoGmes77cd1VlfwSQl2MWLtu1kLgtsEVuQPkpld2n76TzapDZ01GJRRYddtBqbuaDoToFKf+34bF7OSHLSt5zhUR+J0h6dt3eya6/vjKwHriKEH62lnevX4Ov2ilZUdN0IR6MaSVTIvxddfDRQEMAFTeTr2nQ8x7SLSIM0WNa2kA7LRnAfcV+38L2Jhgb8e3CfSzpvSbTJTBX3LTPVWZzwLM0atCByuL/iuBSneJ4Qm0/ZPdxr0jFcA26xh/8GnmkkWtROoaP8t7efCn8PMG1qO7bad3CeORCmwQ49FjZzAVeDPZPWmemigEUhOXnjoYj3qxbno3S2ZNF1B3lTYxfnJVw7GvNw7rLEgjk8XJQy5AbR4FGR5H83iTxHDvAVOVTxs8Cjl0gk/7NYoBA28p0tfadPq3DUqRdUD14ZR3pIJJLKgyXmkXfvDnWpAklS+xNJ0ZNIJFFgjfgd2kve4+aV9uWFPwf1Uix8qOqT+ieRSErAErcXjQyFP31FPlfsoxiswnfsoCJ8UvkkEkkUxC1+Wjw/f/ZZKvz6E/JhovFyBlan7/QJRfeqcDcIiURSfsRv+YmuJZzsNvKdPEb5H79FhQtnkudE+bnBRfz3xG9QTL/iD4lEIgmHBcFMffiPbEhYRoIJhoaH5BTR/8937BAlDRxGzgt6Kl+yEISz9+7cSn67nRO6ubCeC/GzsR5KFZRIJOZY0uABoREBTSFAGOeHYQEQoSKXOgubnQqXzCIvu8bRgLrD/C8+JPeOzeqWUGBZom+fd8cW9e+pSfi+UvgkEklk4rf8EGECVp44i1+JrqJZfpzEqEgYg9iWkkbJw0ZRQoPw8f28Z0+Ra/pUFk12m1nAbLUyydG8jRjCZk9NF/V73t1bhYsNkYPwweJD3aPWwRn/SfGTSCSRsED8tK9D7PAh/hNblDBTWIJb7OUPZZ+jZXtynt+dbJl1yZGhzlOQl0NFa5eRZ+NqNuswdAlixkl/fkXZFGBZQvhgcWJZOx6CKYVPIpGUQPzD2yQSiaQKYlGdn0QikVQtpPhJJJJqiRQ/iURSLZHiJ5FIqiVS/CQSSbVEip9EIqmWSPGTSCTVEil+EomkWiLFTyKRVEuk+EkkkmqJFD+JRFItkeInkUiqJVL8JBJJtUSKn0QiqZZI8ZNIJNUQov8HkHeunSyRgxsAAAAASUVORK5CYII=;" vertex="1" parent="1">
          <mxGeometry x="350.78" y="476.5" width="148.45" height="47" as="geometry" />
        </mxCell>
        <mxCell id="pl3pOV0jGXb2XWtJpDfa-37" style="edgeStyle=orthogonalEdgeStyle;rounded=0;orthogonalLoop=1;jettySize=auto;html=1;endArrow=none;endFill=0;" edge="1" parent="1" source="pl3pOV0jGXb2XWtJpDfa-38" target="pl3pOV0jGXb2XWtJpDfa-35">
          <mxGeometry relative="1" as="geometry" />
        </mxCell>
        <mxCell id="pl3pOV0jGXb2XWtJpDfa-38" value="192.168.51.93" style="image;points=[];aspect=fixed;html=1;align=center;shadow=0;dashed=0;image=img/lib/allied_telesis/computer_and_terminals/Server_Desktop.svg;" vertex="1" parent="1">
          <mxGeometry x="365.84000000000003" y="596.5" width="118.33" height="150" as="geometry" />
        </mxCell>
        <mxCell id="pl3pOV0jGXb2XWtJpDfa-39" style="edgeStyle=orthogonalEdgeStyle;rounded=0;orthogonalLoop=1;jettySize=auto;html=1;entryX=0;entryY=0.5;entryDx=0;entryDy=0;endArrow=none;endFill=0;" edge="1" parent="1" source="pl3pOV0jGXb2XWtJpDfa-40" target="pl3pOV0jGXb2XWtJpDfa-33">
          <mxGeometry relative="1" as="geometry" />
        </mxCell>
        <mxCell id="pl3pOV0jGXb2XWtJpDfa-40" value="192.168.51.94" style="image;points=[];aspect=fixed;html=1;align=center;shadow=0;dashed=0;image=img/lib/allied_telesis/computer_and_terminals/Server_Desktop.svg;" vertex="1" parent="1">
          <mxGeometry x="690" y="506.5" width="118.33" height="150" as="geometry" />
        </mxCell>
        <mxCell id="pl3pOV0jGXb2XWtJpDfa-41" value="" style="shape=image;verticalLabelPosition=bottom;labelBackgroundColor=default;verticalAlign=top;aspect=fixed;imageAspect=0;image=https://miro.medium.com/max/336/0*7pLYtIrRNXSsER2M.png;" vertex="1" parent="1">
          <mxGeometry x="917" y="531.96" width="116" height="99.08" as="geometry" />
        </mxCell>
        <mxCell id="pl3pOV0jGXb2XWtJpDfa-43" value="&lt;b&gt;&lt;font style=&quot;font-size: 24px;&quot;&gt;目標&lt;/font&gt;&lt;/b&gt;" style="html=1;shadow=0;dashed=0;align=center;verticalAlign=middle;shape=mxgraph.arrows2.arrow;dy=0.6;dx=40;direction=south;notch=0;" vertex="1" parent="1">
          <mxGeometry x="570" y="350" width="130" height="100" as="geometry" />
        </mxCell>
      </root>
    </mxGraphModel>
  </diagram>
</mxfile>
